<mxfile host="app.diagrams.net" agent="Mozilla/5.0 (Windows NT 10.0; Win64; x64; rv:136.0) Gecko/20100101 Firefox/136.0" version="26.2.14">
  <diagram id="e2aszzbdS_WtfKUo8e88" name="Page-1">
    <mxGraphModel dx="2404" dy="2742" grid="1" gridSize="10" guides="1" tooltips="1" connect="1" arrows="1" fold="1" page="1" pageScale="1" pageWidth="827" pageHeight="1169" math="0" shadow="0">
      <root>
        <mxCell id="0" />
        <mxCell id="1" parent="0" />
        <mxCell id="j0Nr9-B5D8_rEawESVaD-10" style="edgeStyle=none;curved=1;rounded=0;orthogonalLoop=1;jettySize=auto;html=1;entryX=0;entryY=0.5;entryDx=0;entryDy=0;fontSize=12;startSize=8;endSize=8;" edge="1" parent="1" source="j0Nr9-B5D8_rEawESVaD-6" target="z4zHAH0KDdDrK1YKnABK-9">
          <mxGeometry relative="1" as="geometry" />
        </mxCell>
        <mxCell id="j0Nr9-B5D8_rEawESVaD-6" value="Generate ODM formation questions" style="whiteSpace=wrap;html=1;fontSize=16;rounded=0;" vertex="1" parent="1">
          <mxGeometry x="-1530" y="-585" width="120" height="60" as="geometry" />
        </mxCell>
        <mxCell id="j0Nr9-B5D8_rEawESVaD-9" style="edgeStyle=none;curved=0;rounded=0;orthogonalLoop=1;jettySize=auto;html=1;entryX=0.5;entryY=0;entryDx=0;entryDy=0;fontSize=12;startSize=8;endSize=8;" edge="1" parent="1" source="z4zHAH0KDdDrK1YKnABK-7" target="j0Nr9-B5D8_rEawESVaD-6">
          <mxGeometry relative="1" as="geometry">
            <Array as="points">
              <mxPoint x="-1020" y="-660" />
              <mxPoint x="-1470" y="-660" />
            </Array>
          </mxGeometry>
        </mxCell>
        <mxCell id="z4zHAH0KDdDrK1YKnABK-1" value="Untitled Layer" parent="0" />
        <mxCell id="z4zHAH0KDdDrK1YKnABK-2" value="Requirements Capturing/Assurance" style="rounded=0;whiteSpace=wrap;html=1;fontSize=16;" parent="z4zHAH0KDdDrK1YKnABK-1" vertex="1">
          <mxGeometry x="-1325" y="-920" width="170" height="68" as="geometry" />
        </mxCell>
        <mxCell id="j0Nr9-B5D8_rEawESVaD-7" style="edgeStyle=none;curved=1;rounded=0;orthogonalLoop=1;jettySize=auto;html=1;entryX=0;entryY=0.5;entryDx=0;entryDy=0;fontSize=12;startSize=8;endSize=8;" edge="1" parent="z4zHAH0KDdDrK1YKnABK-1" source="z4zHAH0KDdDrK1YKnABK-3" target="z4zHAH0KDdDrK1YKnABK-11">
          <mxGeometry relative="1" as="geometry" />
        </mxCell>
        <mxCell id="z4zHAH0KDdDrK1YKnABK-3" value="Explore hazards from step 2" style="whiteSpace=wrap;html=1;fontSize=16;rounded=0;" parent="z4zHAH0KDdDrK1YKnABK-1" vertex="1">
          <mxGeometry x="-1530" y="-780" width="120" height="60" as="geometry" />
        </mxCell>
        <mxCell id="z4zHAH0KDdDrK1YKnABK-7" value="Opinion/History Gathering" style="whiteSpace=wrap;html=1;fontSize=16;rounded=0;" parent="z4zHAH0KDdDrK1YKnABK-1" vertex="1">
          <mxGeometry x="-1080" y="-780" width="120" height="60" as="geometry" />
        </mxCell>
        <mxCell id="j0Nr9-B5D8_rEawESVaD-11" style="edgeStyle=none;curved=1;rounded=0;orthogonalLoop=1;jettySize=auto;html=1;entryX=0;entryY=0.5;entryDx=0;entryDy=0;fontSize=12;startSize=8;endSize=8;" edge="1" parent="z4zHAH0KDdDrK1YKnABK-1" source="z4zHAH0KDdDrK1YKnABK-9" target="z4zHAH0KDdDrK1YKnABK-13">
          <mxGeometry relative="1" as="geometry" />
        </mxCell>
        <mxCell id="z4zHAH0KDdDrK1YKnABK-9" value="Define Safety Requirements" style="whiteSpace=wrap;html=1;fontSize=16;rounded=0;" parent="z4zHAH0KDdDrK1YKnABK-1" vertex="1">
          <mxGeometry x="-1301" y="-585" width="120" height="60" as="geometry" />
        </mxCell>
        <mxCell id="j0Nr9-B5D8_rEawESVaD-8" style="edgeStyle=none;curved=1;rounded=0;orthogonalLoop=1;jettySize=auto;html=1;entryX=0;entryY=0.5;entryDx=0;entryDy=0;fontSize=12;startSize=8;endSize=8;" edge="1" parent="z4zHAH0KDdDrK1YKnABK-1" source="z4zHAH0KDdDrK1YKnABK-11" target="z4zHAH0KDdDrK1YKnABK-7">
          <mxGeometry relative="1" as="geometry" />
        </mxCell>
        <mxCell id="z4zHAH0KDdDrK1YKnABK-11" value="Investigate relevant incident reports" style="whiteSpace=wrap;html=1;fontSize=16;rounded=0;" parent="z4zHAH0KDdDrK1YKnABK-1" vertex="1">
          <mxGeometry x="-1301" y="-780" width="120" height="60" as="geometry" />
        </mxCell>
        <mxCell id="z4zHAH0KDdDrK1YKnABK-13" value="Generate Safe Opeation argument" style="whiteSpace=wrap;html=1;fontSize=16;rounded=0;" parent="z4zHAH0KDdDrK1YKnABK-1" vertex="1">
          <mxGeometry x="-1080" y="-585" width="120" height="60" as="geometry" />
        </mxCell>
      </root>
    </mxGraphModel>
  </diagram>
</mxfile>
